<mxfile host="app.diagrams.net" agent="Mozilla/5.0 (Windows NT 10.0; Win64; x64; rv:129.0) Gecko/20100101 Firefox/129.0" version="24.7.7">
  <diagram name="Página-1" id="sEH_KMVjG5P8stYreuwP">
    <mxGraphModel dx="880" dy="442" grid="1" gridSize="10" guides="1" tooltips="1" connect="1" arrows="1" fold="1" page="1" pageScale="1" pageWidth="827" pageHeight="1169" math="0" shadow="0">
      <root>
        <mxCell id="0" />
        <mxCell id="1" parent="0" />
        <mxCell id="9losAwSUsiRn6eGcseyA-9" style="edgeStyle=orthogonalEdgeStyle;rounded=0;orthogonalLoop=1;jettySize=auto;html=1;entryX=0;entryY=0.5;entryDx=0;entryDy=0;" edge="1" parent="1" source="9losAwSUsiRn6eGcseyA-1">
          <mxGeometry relative="1" as="geometry">
            <mxPoint x="294" y="120" as="targetPoint" />
          </mxGeometry>
        </mxCell>
        <mxCell id="9losAwSUsiRn6eGcseyA-13" value="" style="edgeStyle=orthogonalEdgeStyle;rounded=0;orthogonalLoop=1;jettySize=auto;html=1;" edge="1" parent="1" source="9losAwSUsiRn6eGcseyA-1" target="9losAwSUsiRn6eGcseyA-11">
          <mxGeometry relative="1" as="geometry" />
        </mxCell>
        <mxCell id="9losAwSUsiRn6eGcseyA-1" value="&lt;font style=&quot;font-size: 20px;&quot;&gt;Cliente&lt;/font&gt;" style="rounded=0;whiteSpace=wrap;html=1;" vertex="1" parent="1">
          <mxGeometry x="40" y="90" width="120" height="60" as="geometry" />
        </mxCell>
        <mxCell id="9losAwSUsiRn6eGcseyA-8" style="edgeStyle=orthogonalEdgeStyle;rounded=0;orthogonalLoop=1;jettySize=auto;html=1;entryX=0;entryY=0.5;entryDx=0;entryDy=0;" edge="1" parent="1" target="9losAwSUsiRn6eGcseyA-3">
          <mxGeometry relative="1" as="geometry">
            <mxPoint x="414" y="120" as="sourcePoint" />
          </mxGeometry>
        </mxCell>
        <mxCell id="9losAwSUsiRn6eGcseyA-6" value="" style="edgeStyle=orthogonalEdgeStyle;rounded=0;orthogonalLoop=1;jettySize=auto;html=1;" edge="1" parent="1" source="9losAwSUsiRn6eGcseyA-3" target="9losAwSUsiRn6eGcseyA-5">
          <mxGeometry relative="1" as="geometry" />
        </mxCell>
        <mxCell id="9losAwSUsiRn6eGcseyA-19" value="" style="edgeStyle=orthogonalEdgeStyle;rounded=0;orthogonalLoop=1;jettySize=auto;html=1;" edge="1" parent="1" source="9losAwSUsiRn6eGcseyA-3" target="9losAwSUsiRn6eGcseyA-18">
          <mxGeometry relative="1" as="geometry" />
        </mxCell>
        <mxCell id="9losAwSUsiRn6eGcseyA-3" value="&lt;div&gt;&lt;font style=&quot;font-size: 20px;&quot;&gt;Producto&lt;/font&gt;&lt;/div&gt;(Auto)" style="rounded=0;whiteSpace=wrap;html=1;" vertex="1" parent="1">
          <mxGeometry x="550" y="90" width="120" height="60" as="geometry" />
        </mxCell>
        <mxCell id="9losAwSUsiRn6eGcseyA-7" value="" style="edgeStyle=orthogonalEdgeStyle;rounded=0;orthogonalLoop=1;jettySize=auto;html=1;" edge="1" parent="1" source="9losAwSUsiRn6eGcseyA-4" target="9losAwSUsiRn6eGcseyA-5">
          <mxGeometry relative="1" as="geometry" />
        </mxCell>
        <mxCell id="9losAwSUsiRn6eGcseyA-4" value="&lt;font style=&quot;font-size: 20px;&quot;&gt;Proveedor&lt;/font&gt;" style="rounded=0;whiteSpace=wrap;html=1;" vertex="1" parent="1">
          <mxGeometry x="860" y="90" width="120" height="60" as="geometry" />
        </mxCell>
        <mxCell id="9losAwSUsiRn6eGcseyA-5" value="" style="rhombus;whiteSpace=wrap;html=1;" vertex="1" parent="1">
          <mxGeometry x="730" y="80" width="80" height="80" as="geometry" />
        </mxCell>
        <mxCell id="9losAwSUsiRn6eGcseyA-10" value="Compra" style="rhombus;whiteSpace=wrap;html=1;" vertex="1" parent="1">
          <mxGeometry x="290" y="80" width="130" height="80" as="geometry" />
        </mxCell>
        <mxCell id="9losAwSUsiRn6eGcseyA-14" value="" style="edgeStyle=orthogonalEdgeStyle;rounded=0;orthogonalLoop=1;jettySize=auto;html=1;" edge="1" parent="1" source="9losAwSUsiRn6eGcseyA-11" target="9losAwSUsiRn6eGcseyA-12">
          <mxGeometry relative="1" as="geometry" />
        </mxCell>
        <mxCell id="9losAwSUsiRn6eGcseyA-11" value="Número de celular" style="ellipse;whiteSpace=wrap;html=1;" vertex="1" parent="1">
          <mxGeometry x="40" y="180" width="120" height="60" as="geometry" />
        </mxCell>
        <mxCell id="9losAwSUsiRn6eGcseyA-17" value="" style="edgeStyle=orthogonalEdgeStyle;rounded=0;orthogonalLoop=1;jettySize=auto;html=1;" edge="1" parent="1" source="9losAwSUsiRn6eGcseyA-12" target="9losAwSUsiRn6eGcseyA-16">
          <mxGeometry relative="1" as="geometry" />
        </mxCell>
        <mxCell id="9losAwSUsiRn6eGcseyA-12" value="Carnet de Identidad" style="ellipse;whiteSpace=wrap;html=1;" vertex="1" parent="1">
          <mxGeometry x="40" y="270" width="120" height="60" as="geometry" />
        </mxCell>
        <mxCell id="9losAwSUsiRn6eGcseyA-16" value="Nombre" style="ellipse;whiteSpace=wrap;html=1;" vertex="1" parent="1">
          <mxGeometry x="40" y="360" width="120" height="60" as="geometry" />
        </mxCell>
        <mxCell id="9losAwSUsiRn6eGcseyA-18" value="Marca" style="ellipse;whiteSpace=wrap;html=1;" vertex="1" parent="1">
          <mxGeometry x="550" y="180" width="120" height="60" as="geometry" />
        </mxCell>
        <mxCell id="9losAwSUsiRn6eGcseyA-20" value="Color" style="ellipse;whiteSpace=wrap;html=1;" vertex="1" parent="1">
          <mxGeometry x="550" y="270" width="120" height="60" as="geometry" />
        </mxCell>
      </root>
    </mxGraphModel>
  </diagram>
</mxfile>
